<?xml version="1.0" encoding="utf-8"?>
<!-- Generator: Adobe Illustrator 27.8.1, SVG Export Plug-In . SVG Version: 6.00 Build 0)  -->
<svg version="1.1" id="图层_1" xmlns="http://www.w3.org/2000/svg" xmlns:xlink="http://www.w3.org/1999/xlink" x="0px" y="0px"
	 viewBox="0 0 1500 618.1" style="enable-background:new 0 0 1500 618.1;" xml:space="preserve">
<style type="text/css">
	.st0{fill:#1DA3AB;}
	.st1{opacity:0.4;fill:#D1CDD1;enable-background:new    ;}
	.st2{fill:#D1CDD1;}
</style>
<g id="OBJECTS">
	<path class="st0" d="M21.5,442.6c15.7-100.4,26.2-201.9,42-302.4c1.1-7.3-8.1-10.5-9.3-3.1C38.5,237.5,28,339.1,12.2,439.5
		C11.1,446.8,20.4,450,21.5,442.6L21.5,442.6z"/>
	<path class="st0" d="M85.2,121.8c1.3,3.7,2.7,7.3,4,10.9c1.2,3.4,5.4,0.5,4.1-2.9c-1.3-3.7-2.7-7.3-4-10.9
		C88.1,115.4,84,118.4,85.2,121.8L85.2,121.8z"/>
	<path class="st0" d="M94.8,117.9c0.3,4.5,0.7,8.9,1,13.4c0.3,3.7,5.1,3.7,4.8,0c-0.3-4.5-0.7-8.9-1-13.4
		C99.3,114.2,94.5,114.2,94.8,117.9L94.8,117.9z"/>
	<path class="st0" d="M101,111.4c1,6.9,2,13.8,3,20.6c0.5,3.7,5.2,2.1,4.6-1.5c-1-6.9-2-13.8-3-20.6
		C105.2,106.1,100.5,107.7,101,111.4L101,111.4z"/>
	<path class="st0" d="M108.3,106.5c1.6,7.7,3.1,15.5,4.7,23.2c0.7,3.6,5.4,2.1,4.6-1.5c-1.6-7.7-3.1-15.5-4.7-23.2
		C112.2,101.3,107.6,102.8,108.3,106.5L108.3,106.5z"/>
	<path class="st0" d="M117.2,101.6c1.6,9.7,3.2,19.5,4.8,29.2c0.6,3.7,5.2,2.1,4.6-1.5c-1.6-9.7-3.2-19.5-4.8-29.2
		C121.2,96.4,116.6,98,117.2,101.6L117.2,101.6z"/>
	<path class="st1" d="M1460.5,591.6c-54.9-14.8-110.7-22-166.9-21.8c-2.9,0-4.4-2.5-4.6-5.2c-0.6-0.7-1-1.5-1.3-2.4
		c-11.6-41.9-23.1-83.8-34.7-125.8c-31.5,0.2-63.1,0.3-94.6,0.6c-190.1,1.4-380.2,4.2-570.3,8.6c-188,4.3-375.9,10.1-563.8,17.8
		c-2.6,3.9-9.3,0.7-8.4-5.5c0.6-3.6,1.1-7.3,1.7-10.9c1.2,0,2.2-0.6,3-1.7c187.9-7.7,375.9-13.5,563.8-17.8
		c190.1-4.3,380.2-7.1,570.3-8.6c31.5-0.2,63.1-0.4,94.6-0.6c11.5,41.9,23.1,83.8,34.7,125.8c0.3,1,0.7,1.8,1.3,2.5
		c0.2,2.7,1.7,5.2,4.6,5.2c56.2-0.3,112,7,166.9,21.8c0.4,0.1,0.8,0.1,1.2,0.1c2.4,2.7,4.8,5.5,7.1,8.3
		C1468.8,586,1465,592.8,1460.5,591.6z"/>
	<path class="st1" d="M1480.8,433.1c-0.5,1.4-1.5,2.5-3.2,2.5h-1c-0.4,1-1,1.9-2,2.6c-25,17.7-50,35.4-74.9,53
		c-3.7-4.3-7.4-8.6-11.1-12.9c27.4-19.4,54.9-38.9,82.3-58.3c1-0.7,1.6-1.7,2-2.7h1c1.6,0,2.7-1.1,3.2-2.5c1.5-1.3,2.4-3.4,2-6
		c-14.7-86-29.4-172-44.2-258c0.2,0.2,0.3,0.5,0.4,0.7c0.6,1.1,1,2.5,0.9,3.9c15.5,90.5,31,181,46.5,271.6
		C1483.2,429.8,1482.3,431.9,1480.8,433.1z"/>
	<path class="st2" d="M1458.1,573.5c-21.9-25.7-43.8-51.3-65.8-76.9c2.5-1.7,4.9-3.5,7.4-5.2c20.6,24.1,41.2,48.2,61.8,72.3
		C1464.8,567.5,1462,573.4,1458.1,573.5z"/>
	<path class="st0" d="M1423,138.3c15.6,91.2,31.2,182.5,46.8,273.7c1.2,7.3,10.5,4.2,9.3-3.1c-15.6-91.2-31.2-182.5-46.8-273.7
		C1431,127.9,1421.7,131,1423,138.3L1423,138.3z"/>
	<path class="st0" d="M59.4,139.9c177.8,1,355.6,2,533.4,2.9c178.6,1,357.2,2,535.8,3c100.1,0.6,199.3-3.4,299.4-2.9
		c6.2,0,6.2-11.6,0-11.6c-177.8-1-354.7,2.6-532.5,1.6c-178.6-1-357.2-2-535.8-3c-100.1-0.6-200.2-1.1-300.3-1.7
		C53.2,128.2,53.2,139.8,59.4,139.9L59.4,139.9z"/>
	<path class="st0" d="M17.3,445.2c189-7.7,378.1-13.6,567.2-17.9c190.1-4.3,380.2-7.1,570.3-8.6c106.4-0.8,212.8-1.2,319.2-1.3
		c4.6,0,4.7-8.7,0-8.7c-189.1,0.1-378.2,1.3-567.4,4c-190.1,2.7-380.2,6.7-570.3,12.4c-106.3,3.2-212.7,7-319,11.3
		C12.7,436.7,12.7,445.4,17.3,445.2L17.3,445.2z"/>
	<path class="st0" d="M1248.9,416.4c11.7,42.5,23.5,85.1,35.2,127.6c1,3.5,4.3,5.5,7.1,3.5c59.9-42.4,119.9-84.8,179.8-127.3
		c5.3-3.8,0.5-13.9-4.9-10.1c-59.9,42.4-119.9,84.8-179.8,127.3c2.4,1.2,4.7,2.3,7.1,3.5c-11.7-42.5-23.5-85.1-35.2-127.6
		C1256.2,406.2,1246.9,409.2,1248.9,416.4L1248.9,416.4z"/>
	<path class="st0" d="M1290,551.6c56.2-0.2,112,7,166.9,21.8c4.5,1.2,8.3-5.5,4.7-9.7c-25.3-29.6-50.6-59.2-75.9-88.8
		c-4.5-5.2-11.3,3-6.8,8.2c25.3,29.6,50.6,59.2,75.9,88.8c1.6-3.2,3.1-6.5,4.7-9.7c-55.7-15-112.4-22.4-169.5-22.2
		C1283.8,540,1283.8,551.6,1290,551.6L1290,551.6z"/>
	<path class="st0" d="M1265.3,418.8c10.9,37.7,21.8,75.4,32.8,113.2c1,3.5,5.7,2,4.6-1.5c-10.9-37.7-21.8-75.4-32.8-113.2
		C1269,413.8,1264.3,415.3,1265.3,418.8L1265.3,418.8z"/>
	<path class="st0" d="M1276.7,418.7c11.6,36.8,23.2,73.7,34.7,110.5c1,3.2,4.4,2.5,4.7-0.8c0.1-1.2,0.2-2.3,0.4-3.5
		c0.4-3.7-4.4-3.7-4.8,0c-0.1,1.2-0.2,2.3-0.4,3.5c1.6-0.3,3.1-0.5,4.7-0.8c-11.6-36.8-23.2-73.7-34.7-110.5
		C1280.2,413.7,1275.6,415.2,1276.7,418.7L1276.7,418.7z"/>
	<path class="st0" d="M1289.3,414.8c9.3,33.8,18.7,67.5,28.1,101.3c1,3.5,5.6,2,4.6-1.5c-9.3-33.8-18.7-67.5-28.1-101.3
		C1293,409.7,1288.3,411.3,1289.3,414.8L1289.3,414.8z"/>
	<path class="st0" d="M1302,418.2c8.8,32,17.6,64,26.4,95.9c1.5-0.7,2.9-1.5,4.4-2.2c-0.5-1-1-2-1.6-3c-1.6-3.2-5.8-0.3-4.1,2.9
		c0.5,1,1,2,1.6,3c1.4,2.7,5.3,1,4.4-2.2c-8.8-32-17.6-64-26.4-95.9C1305.7,413.1,1301,414.7,1302,418.2L1302,418.2z"/>
	<path class="st0" d="M1314.5,418.5c7.6,28,15.1,56,22.7,84c1,3.5,5.6,2,4.6-1.5c-7.6-28-15.1-56-22.7-84
		C1318.1,413.4,1313.5,414.9,1314.5,418.5L1314.5,418.5z"/>
	<path class="st0" d="M1328,418.7c6.9,24.6,13.9,49.2,20.8,73.8c1,3.5,5.6,2,4.6-1.5c-6.9-24.6-13.9-49.2-20.8-73.8
		C1331.7,413.6,1327,415.1,1328,418.7L1328,418.7z"/>
	<path class="st0" d="M1339.8,416.4c6.4,23.1,12.8,46.2,19.2,69.2c1,3.5,5.6,2,4.6-1.5c-6.4-23.1-12.8-46.2-19.2-69.2
		C1343.4,411.3,1338.8,412.8,1339.8,416.4L1339.8,416.4z"/>
	<path class="st0" d="M1354.4,418.6c5.3,21.1,10.5,42.2,15.8,63.3c0.9,3.6,5.5,2.1,4.6-1.5c-5.3-21.1-10.5-42.2-15.8-63.3
		C1358.2,413.5,1353.5,415,1354.4,418.6L1354.4,418.6z"/>
	<path class="st0" d="M1366.7,416.4c5.1,20.6,10.1,41.3,15.2,61.9c0.9,3.6,5.5,2.1,4.6-1.5c-5.1-20.6-10.1-41.3-15.2-61.9
		C1370.5,411.3,1365.8,412.8,1366.7,416.4L1366.7,416.4z"/>
	<path class="st0" d="M1380.6,416.2c4.5,17.1,9,34.2,13.5,51.2c1,3.6,5.6,2,4.6-1.5c-4.5-17.1-9-34.2-13.5-51.2
		C1384.2,411.1,1379.6,412.6,1380.6,416.2L1380.6,416.2z"/>
	<path class="st0" d="M1393.4,416.3c4.3,13,8.6,26,12.8,39c1.1,3.5,5.8,1.9,4.6-1.5c-4.3-13-8.6-26-12.8-39
		C1397,411.3,1392.3,412.8,1393.4,416.3L1393.4,416.3z"/>
	<path class="st0" d="M62.8,139.2c58.4-35.8,118.3-67.9,176.8-103.8c-2.4-1.7-4.8-3.4-7.2-5c-1,34.8,0.6,69.7-0.4,104.5
		c-0.2,7.5,9.4,7.5,9.6,0c1-34.8-0.6-69.7,0.4-104.5c0.1-4.7-4.1-6.9-7.2-5C176.3,61.2,116.4,93.3,57.9,129.2
		C52.4,132.6,57.3,142.6,62.8,139.2L62.8,139.2z"/>
	<path class="st0" d="M126,95.4c1.8,12.2,3.6,24.4,5.4,36.6c0.5,3.7,5.2,2.1,4.6-1.5c-1.8-12.2-3.6-24.4-5.4-36.6
		C130.1,90.2,125.4,91.7,126,95.4L126,95.4z"/>
	<path class="st0" d="M135.7,91.1c1.5,14.6,3,29.2,4.4,43.8c0.4,3.7,5.2,3.7,4.8,0c-1.5-14.6-3-29.2-4.4-43.8
		C140.1,87.4,135.3,87.4,135.7,91.1L135.7,91.1z"/>
	<path class="st0" d="M146,81.4c0.7,18.5,1.5,37.1,2.2,55.6c0.1,3.4,3.7,3.7,4.7,0.8c0.4-1.1,0.7-2.2,1.1-3.3c1.1-3.5-3.5-5-4.6-1.5
		c-0.4,1.1-0.7,2.2-1.1,3.3c1.6,0.3,3.1,0.5,4.7,0.8c-0.7-18.5-1.5-37.1-2.2-55.6C150.6,77.7,145.8,77.6,146,81.4L146,81.4z"/>
	<path class="st0" d="M155.9,76.5c1,18.7,2.1,37.4,3.2,56c0.2,3.7,5,3.7,4.8,0c-1-18.7-2.1-37.4-3.2-56
		C160.6,72.8,155.7,72.8,155.9,76.5L155.9,76.5z"/>
	<path class="st0" d="M165.2,71.7c1.3,19.4,2.6,38.9,3.9,58.3c0.2,3.7,5.1,3.7,4.8,0c-1.3-19.4-2.6-38.9-3.9-58.3
		C169.7,68,164.9,68,165.2,71.7L165.2,71.7z"/>
	<path class="st0" d="M178.4,63.2c1,22.7,1.9,45.4,2.9,68c0.1,3.7,5,3.7,4.8,0c-1-22.7-1.9-45.4-2.9-68
		C183.1,59.5,178.3,59.5,178.4,63.2L178.4,63.2z"/>
	<path class="st0" d="M191,57.1c0.6,24.7,1.2,49.4,1.9,74.1c0.1,3.7,4.9,3.7,4.8,0c-0.6-24.7-1.2-49.4-1.9-74.1
		C195.8,53.4,190.9,53.4,191,57.1L191,57.1z"/>
	<path class="st0" d="M202.1,51c0.6,26.6,1.1,53.2,1.7,79.8c1.6,0,3.2,0,4.8,0c-0.1-1.9-0.2-3.8-0.3-5.7c-0.2-3.7-5-3.7-4.8,0
		c0.1,1.9,0.2,3.8,0.3,5.7c0.2,3.7,4.9,3.8,4.8,0c-0.6-26.6-1.1-53.2-1.7-79.8C206.9,47.3,202.1,47.3,202.1,51L202.1,51z"/>
	<path class="st0" d="M212,47.4c1,27.5,2,55.1,3.1,82.6c0.1,3.7,5,3.7,4.8,0c-1-27.5-2-55.1-3.1-82.6
		C216.7,43.7,211.9,43.6,212,47.4L212,47.4z"/>
	<path class="st0" d="M220.8,37.7c1.9,30.4,3.9,60.8,5.8,91.1c0.2,3.7,5.1,3.7,4.8,0c-1.9-30.4-3.9-60.8-5.8-91.1
		C225.4,34,220.6,33.9,220.8,37.7L220.8,37.7z"/>
	<path class="st0" d="M1405.6,416.4c3.6,11,7.1,22,10.7,33c1.1,3.5,5.8,1.9,4.6-1.5c-3.6-11-7.1-22-10.7-33
		C1409.1,411.4,1404.5,412.9,1405.6,416.4L1405.6,416.4z"/>
	<path class="st0" d="M1419.1,419.7c2,6.5,4,12.9,6.1,19.4c1.1,3.5,5.7,2,4.6-1.5c-2-6.5-4-12.9-6.1-19.4
		C1422.6,414.7,1418,416.2,1419.1,419.7L1419.1,419.7z"/>
	<path class="st0" d="M1430.3,416.9c2.7,6.9,5.4,13.8,8,20.6c1.3,3.4,5.5,0.4,4.1-2.9c-2.7-6.9-5.4-13.8-8-20.6
		C1433.1,410.6,1428.9,413.5,1430.3,416.9L1430.3,416.9z"/>
	<path class="st0" d="M1442.9,418.4c0.7,2,1.4,4,2,6.1c0.5,1.4,1.6,2.5,3,2c1.1-0.4,2.2-2.1,1.7-3.6c-0.7-2-1.4-4-2-6.1
		c-0.5-1.4-1.6-2.5-3-2C1443.5,415.1,1442.4,416.9,1442.9,418.4L1442.9,418.4z"/>
</g>
<g id="DESIGNED_BY_FREEPIK">
</g>
</svg>
